<svg width="422" height="73" viewBox="0 0 422 73" fill="none" xmlns="http://www.w3.org/2000/svg">
<path d="M28.52 71C25.256 71 22.472 70.36 20.168 69.08C17.864 67.736 16.136 65.848 14.984 63.416C13.832 60.984 13.256 58.136 13.256 54.872V8.216L22.952 2.936V54.872C22.952 56.408 23.176 57.816 23.624 59.096C24.072 60.376 24.936 61.368 26.216 62.072C27.56 62.776 29.512 63.128 32.072 63.128H47.912V71H28.52ZM0.776 26.072V18.2H39.464V26.072H0.776ZM101.038 40.856V34.52C101.038 31.768 100.206 29.56 98.5415 27.896C96.8775 26.168 94.4775 25.304 91.3415 25.304C87.3735 25.304 83.8215 26.808 80.6855 29.816C77.5495 32.76 75.0535 37.272 73.1975 43.352L71.8535 33.56C73.2615 29.912 74.9575 26.872 76.9415 24.44C78.9895 22.008 81.3255 20.184 83.9495 18.968C86.6375 17.688 89.5815 17.048 92.7815 17.048C98.0935 17.048 102.414 18.584 105.742 21.656C109.07 24.664 110.734 28.952 110.734 34.52V40.856H101.038ZM65.3255 71V18.2H74.4455L75.0215 30.2V71H65.3255ZM134.387 18.2V51.512C134.387 55.224 135.443 58.232 137.555 60.536C139.667 62.776 142.419 63.896 145.811 63.896C149.715 63.896 153.171 62.488 156.179 59.672C159.251 56.792 161.683 52.344 163.475 46.328L165.011 57.176C163.027 62.168 160.147 65.912 156.371 68.408C152.659 70.904 148.595 72.152 144.179 72.152C140.211 72.152 136.755 71.32 133.811 69.656C130.931 67.928 128.691 65.56 127.091 62.552C125.491 59.544 124.691 55.992 124.691 51.896V18.2H134.387ZM172.019 18.2V71H162.803L162.323 59.096V18.2H172.019ZM212.953 72.152C208.281 72.152 204.153 71.352 200.569 69.752C197.049 68.088 194.329 65.784 192.409 62.84C190.489 59.832 189.497 56.248 189.433 52.088H198.553C198.553 55.992 199.865 59.064 202.489 61.304C205.113 63.544 208.569 64.664 212.857 64.664C216.505 64.664 219.417 63.992 221.593 62.648C223.833 61.24 224.953 59.352 224.953 56.984C224.953 55.128 224.313 53.656 223.033 52.568C221.817 51.416 220.185 50.52 218.137 49.88C216.089 49.24 213.817 48.696 211.321 48.248C208.889 47.736 206.425 47.16 203.929 46.52C201.497 45.816 199.257 44.952 197.209 43.928C195.161 42.84 193.497 41.4 192.217 39.608C190.937 37.816 190.297 35.48 190.297 32.6C190.297 29.592 191.161 26.936 192.889 24.632C194.617 22.264 197.049 20.408 200.185 19.064C203.385 17.72 207.161 17.048 211.513 17.048C218.105 17.048 223.385 18.584 227.353 21.656C231.385 24.664 233.561 28.824 233.881 34.136H224.761C224.569 31.064 223.289 28.696 220.921 27.032C218.617 25.304 215.481 24.44 211.513 24.44C207.801 24.44 204.953 25.176 202.969 26.648C201.049 28.12 200.089 29.976 200.089 32.216C200.089 33.944 200.729 35.32 202.009 36.344C203.289 37.304 204.953 38.072 207.001 38.648C209.049 39.16 211.289 39.64 213.721 40.088C216.217 40.472 218.681 40.984 221.113 41.624C223.609 42.264 225.881 43.16 227.929 44.312C229.977 45.4 231.609 46.904 232.825 48.824C234.105 50.744 234.745 53.24 234.745 56.312C234.745 61.24 232.761 65.112 228.792 67.928C224.825 70.744 219.545 72.152 212.953 72.152ZM274.526 72.152C269.086 72.152 264.382 71.064 260.414 68.888C256.446 66.648 253.406 63.48 251.294 59.384C249.182 55.224 248.126 50.264 248.126 44.504C248.126 38.744 249.182 33.816 251.294 29.72C253.47 25.624 256.542 22.488 260.51 20.312C264.542 18.136 269.342 17.048 274.91 17.048C283.422 17.048 289.758 19.416 293.918 24.152C298.078 28.824 299.902 35.256 299.39 43.448H255.806L255.902 36.152L289.502 36.248C289.246 32.856 287.774 30.136 285.086 28.088C282.398 26.04 279.006 25.016 274.91 25.016C269.406 25.016 265.182 26.744 262.238 30.2C259.294 33.656 257.822 38.552 257.822 44.888C257.822 48.664 258.462 52.024 259.742 54.968C261.086 57.848 263.006 60.088 265.502 61.688C267.998 63.288 271.006 64.088 274.526 64.088C278.686 64.088 282.142 63.096 284.894 61.112C287.71 59.128 289.438 56.44 290.078 53.048H299.774C298.942 59 296.286 63.672 291.806 67.064C287.326 70.456 281.566 72.152 274.526 72.152ZM336.964 72.152C331.524 72.152 326.82 71.064 322.852 68.888C318.884 66.648 315.844 63.48 313.732 59.384C311.62 55.224 310.564 50.264 310.564 44.504C310.564 38.744 311.62 33.816 313.732 29.72C315.908 25.624 318.98 22.488 322.948 20.312C326.98 18.136 331.78 17.048 337.348 17.048C345.86 17.048 352.196 19.416 356.356 24.152C360.516 28.824 362.34 35.256 361.828 43.448H318.244L318.34 36.152L351.94 36.248C351.684 32.856 350.212 30.136 347.524 28.088C344.836 26.04 341.444 25.016 337.348 25.016C331.844 25.016 327.62 26.744 324.676 30.2C321.732 33.656 320.26 38.552 320.26 44.888C320.26 48.664 320.9 52.024 322.18 54.968C323.524 57.848 325.444 60.088 327.94 61.688C330.436 63.288 333.444 64.088 336.964 64.088C341.124 64.088 344.58 63.096 347.332 61.112C350.148 59.128 351.876 56.44 352.516 53.048H362.212C361.38 59 358.724 63.672 354.244 67.064C349.764 70.456 344.004 72.152 336.964 72.152ZM374.153 71V0.439999H383.849V26.84L383.369 41.336L393.545 31.064L407.945 18.2H420.809L383.849 51.8V71H374.153ZM410.537 71L392.009 38.648L400.553 34.424L421.865 71H410.537Z" fill="white"/>
</svg>
